# Tiled2Unity generated file. Do not modify by hand.
# Wavefront file for 'inHouse_mesh_0002.obj'

# Vertices (Count = 172)
v -176 -32 0
v -192 -32 0
v -192 -16 0
v -176 -16 0
v -144 -32 0
v -160 -32 0
v -160 -16 0
v -144 -16 0
v -96 -32 0
v -112 -32 0
v -112 -16 0
v -96 -16 0
v -64 -32 0
v -80 -32 0
v -80 -16 0
v -64 -16 0
v -176 -48 0
v -192 -48 0
v -192 -32 0
v -176 -32 0
v -160 -48 0
v -176 -48 0
v -176 -32 0
v -160 -32 0
v -144 -48 0
v -160 -48 0
v -160 -32 0
v -144 -32 0
v -96 -48 0
v -112 -48 0
v -112 -32 0
v -96 -32 0
v -80 -48 0
v -96 -48 0
v -96 -32 0
v -80 -32 0
v -64 -48 0
v -80 -48 0
v -80 -32 0
v -64 -32 0
v -176 -64 0
v -192 -64 0
v -192 -48 0
v -176 -48 0
v -160 -64 0
v -176 -64 0
v -176 -48 0
v -160 -48 0
v -144 -64 0
v -160 -64 0
v -160 -48 0
v -144 -48 0
v -96 -64 0
v -112 -64 0
v -112 -48 0
v -96 -48 0
v -80 -64 0
v -96 -64 0
v -96 -48 0
v -80 -48 0
v -64 -64 0
v -80 -64 0
v -80 -48 0
v -64 -48 0
v -176 -80 0
v -192 -80 0
v -192 -64 0
v -176 -64 0
v -160 -80 0
v -176 -80 0
v -176 -64 0
v -160 -64 0
v -144 -80 0
v -160 -80 0
v -160 -64 0
v -144 -64 0
v -128 -80 0
v -144 -80 0
v -144 -64 0
v -128 -64 0
v -112 -80 0
v -128 -80 0
v -128 -64 0
v -112 -64 0
v -48 -80 0
v -64 -80 0
v -64 -64 0
v -48 -64 0
v -32 -80 0
v -48 -80 0
v -48 -64 0
v -32 -64 0
v -16 -80 0
v -32 -80 0
v -32 -64 0
v -16 -64 0
v -224 -96 0
v -240 -96 0
v -240 -80 0
v -224 -80 0
v -48 -128 0
v -64 -128 0
v -64 -112 0
v -48 -112 0
v -32 -128 0
v -48 -128 0
v -48 -112 0
v -32 -112 0
v -16 -128 0
v -32 -128 0
v -32 -112 0
v -16 -112 0
v -16 -176 0
v -32 -176 0
v -32 -160 0
v -16 -160 0
v -224 -256 0
v -240 -256 0
v -240 -240 0
v -224 -240 0
v -208 -256 0
v -224 -256 0
v -224 -240 0
v -208 -240 0
v -192 -256 0
v -208 -256 0
v -208 -240 0
v -192 -240 0
v -176 -256 0
v -192 -256 0
v -192 -240 0
v -176 -240 0
v -160 -256 0
v -176 -256 0
v -176 -240 0
v -160 -240 0
v -144 -256 0
v -160 -256 0
v -160 -240 0
v -144 -240 0
v -128 -256 0
v -144 -256 0
v -144 -240 0
v -128 -240 0
v -112 -256 0
v -128 -256 0
v -128 -240 0
v -112 -240 0
v -96 -256 0
v -112 -256 0
v -112 -240 0
v -96 -240 0
v -80 -256 0
v -96 -256 0
v -96 -240 0
v -80 -240 0
v -64 -256 0
v -80 -256 0
v -80 -240 0
v -64 -240 0
v -48 -256 0
v -64 -256 0
v -64 -240 0
v -48 -240 0
v -32 -256 0
v -48 -256 0
v -48 -240 0
v -32 -240 0
v -16 -256 0
v -32 -256 0
v -32 -240 0
v -16 -240 0

# Texture cooridinates (Count = 68)
vt 0.8780992 0.9695817
vt 0.8946281 0.9695817
vt 0.8946281 1
vt 0.8780992 1
vt 0.8780992 0.9372624
vt 0.8946281 0.9372624
vt 0.8946281 0.9676806
vt 0.8780992 0.9676806
vt 0.7902893 0.904943
vt 0.8068182 0.904943
vt 0.8068182 0.9353612
vt 0.7902893 0.9353612
vt 0.8780992 0.904943
vt 0.8946281 0.904943
vt 0.8946281 0.9353612
vt 0.8780992 0.9353612
vt 0.7902893 0.8726236
vt 0.8068182 0.8726236
vt 0.8068182 0.9030418
vt 0.7902893 0.9030418
vt 0.8780992 0.5817491
vt 0.8946281 0.5817491
vt 0.8946281 0.6121673
vt 0.8780992 0.6121673
vt 0.8429752 0.5817491
vt 0.8595041 0.5817491
vt 0.8595041 0.6121673
vt 0.8429752 0.6121673
vt 0.7551653 0.5817491
vt 0.7716942 0.5817491
vt 0.7716942 0.6121673
vt 0.7551653 0.6121673
vt 0.2634298 0.8726236
vt 0.2799587 0.8726236
vt 0.2799587 0.9030418
vt 0.2634298 0.9030418
vt 0.2985537 0.7756654
vt 0.3150826 0.7756654
vt 0.3150826 0.8060837
vt 0.2985537 0.8060837
vt 0.2809917 0.7756654
vt 0.2975207 0.7756654
vt 0.2975207 0.8060837
vt 0.2809917 0.8060837
vt 0.2634298 0.7756654
vt 0.2799587 0.7756654
vt 0.2799587 0.8060837
vt 0.2634298 0.8060837
vt 0.2634298 0.9695817
vt 0.2799587 0.9695817
vt 0.2799587 1
vt 0.2634298 1
vt 0.7024794 0.2262357
vt 0.7190083 0.2262357
vt 0.7190083 0.256654
vt 0.7024794 0.256654
vt 0.6849173 0.2262357
vt 0.7014463 0.2262357
vt 0.7014463 0.256654
vt 0.6849173 0.256654
vt 0.6497934 0.9695817
vt 0.6663223 0.9695817
vt 0.6663223 1
vt 0.6497934 1
vt 0.6673554 0.2262357
vt 0.6838843 0.2262357
vt 0.6838843 0.256654
vt 0.6673554 0.256654

# Normal
vn 0 0 -1

# Mesh description
g inHouse_mesh_0002

# Faces
f 1/1/1 2/2/1 3/3/1 4/4/1
f 5/1/1 6/2/1 7/3/1 8/4/1
f 9/1/1 10/2/1 11/3/1 12/4/1
f 13/1/1 14/2/1 15/3/1 16/4/1
f 17/5/1 18/6/1 19/7/1 20/8/1
f 21/9/1 22/10/1 23/11/1 24/12/1
f 25/5/1 26/6/1 27/7/1 28/8/1
f 29/5/1 30/6/1 31/7/1 32/8/1
f 33/9/1 34/10/1 35/11/1 36/12/1
f 37/5/1 38/6/1 39/7/1 40/8/1
f 41/13/1 42/14/1 43/15/1 44/16/1
f 45/17/1 46/18/1 47/19/1 48/20/1
f 49/13/1 50/14/1 51/15/1 52/16/1
f 53/13/1 54/14/1 55/15/1 56/16/1
f 57/17/1 58/18/1 59/19/1 60/20/1
f 61/13/1 62/14/1 63/15/1 64/16/1
f 65/21/1 66/22/1 67/23/1 68/24/1
f 69/25/1 70/26/1 71/27/1 72/28/1
f 73/25/1 74/26/1 75/27/1 76/28/1
f 77/25/1 78/26/1 79/27/1 80/28/1
f 81/29/1 82/30/1 83/31/1 84/32/1
f 85/29/1 86/30/1 87/31/1 88/32/1
f 89/29/1 90/30/1 91/31/1 92/32/1
f 93/29/1 94/30/1 95/31/1 96/32/1
f 97/33/1 98/34/1 99/35/1 100/36/1
f 101/37/1 102/38/1 103/39/1 104/40/1
f 105/41/1 106/42/1 107/43/1 108/44/1
f 109/45/1 110/46/1 111/47/1 112/48/1
f 113/49/1 114/50/1 115/51/1 116/52/1
f 117/53/1 118/54/1 119/55/1 120/56/1
f 121/57/1 122/58/1 123/59/1 124/60/1
f 125/57/1 126/58/1 127/59/1 128/60/1
f 129/57/1 130/58/1 131/59/1 132/60/1
f 133/57/1 134/58/1 135/59/1 136/60/1
f 137/57/1 138/58/1 139/59/1 140/60/1
f 141/57/1 142/58/1 143/59/1 144/60/1
f 145/57/1 146/58/1 147/59/1 148/60/1
f 149/57/1 150/58/1 151/59/1 152/60/1
f 153/61/1 154/62/1 155/63/1 156/64/1
f 157/57/1 158/58/1 159/59/1 160/60/1
f 161/57/1 162/58/1 163/59/1 164/60/1
f 165/57/1 166/58/1 167/59/1 168/60/1
f 169/65/1 170/66/1 171/67/1 172/68/1

