# Tiled2Unity generated file. Do not modify by hand.
# Wavefront file for 'gamemap1_mesh_0004.obj'

# Vertices (Count = 168)
v -1184 -912 0
v -1200 -912 0
v -1200 -896 0
v -1184 -896 0
v -1184 -928 0
v -1200 -928 0
v -1200 -912 0
v -1184 -912 0
v -1152 -928 0
v -1168 -928 0
v -1168 -912 0
v -1152 -912 0
v -1264 -944 0
v -1280 -944 0
v -1280 -928 0
v -1264 -928 0
v -1168 -944 0
v -1184 -944 0
v -1184 -928 0
v -1168 -928 0
v -1152 -944 0
v -1168 -944 0
v -1168 -928 0
v -1152 -928 0
v -1280 -960 0
v -1296 -960 0
v -1296 -944 0
v -1280 -944 0
v -1264 -960 0
v -1280 -960 0
v -1280 -944 0
v -1264 -944 0
v -1184 -960 0
v -1200 -960 0
v -1200 -944 0
v -1184 -944 0
v -1168 -960 0
v -1184 -960 0
v -1184 -944 0
v -1168 -944 0
v -1152 -960 0
v -1168 -960 0
v -1168 -944 0
v -1152 -944 0
v -1280 -976 0
v -1296 -976 0
v -1296 -960 0
v -1280 -960 0
v -1264 -976 0
v -1280 -976 0
v -1280 -960 0
v -1264 -960 0
v -1184 -976 0
v -1200 -976 0
v -1200 -960 0
v -1184 -960 0
v -1168 -976 0
v -1184 -976 0
v -1184 -960 0
v -1168 -960 0
v -1152 -976 0
v -1168 -976 0
v -1168 -960 0
v -1152 -960 0
v -1264 -992 0
v -1280 -992 0
v -1280 -976 0
v -1264 -976 0
v -1184 -992 0
v -1200 -992 0
v -1200 -976 0
v -1184 -976 0
v -1168 -992 0
v -1184 -992 0
v -1184 -976 0
v -1168 -976 0
v -1216 -1008 0
v -1232 -1008 0
v -1232 -992 0
v -1216 -992 0
v -1184 -1008 0
v -1200 -1008 0
v -1200 -992 0
v -1184 -992 0
v -1168 -1008 0
v -1184 -1008 0
v -1184 -992 0
v -1168 -992 0
v -1152 -1008 0
v -1168 -1008 0
v -1168 -992 0
v -1152 -992 0
v -1216 -1024 0
v -1232 -1024 0
v -1232 -1008 0
v -1216 -1008 0
v -1184 -1024 0
v -1200 -1024 0
v -1200 -1008 0
v -1184 -1008 0
v -1168 -1024 0
v -1184 -1024 0
v -1184 -1008 0
v -1168 -1008 0
v -1152 -1024 0
v -1168 -1024 0
v -1168 -1008 0
v -1152 -1008 0
v -1280 -1040 0
v -1296 -1040 0
v -1296 -1024 0
v -1280 -1024 0
v -1280 -1056 0
v -1296 -1056 0
v -1296 -1040 0
v -1280 -1040 0
v -1168 -1072 0
v -1184 -1072 0
v -1184 -1056 0
v -1168 -1056 0
v -1328 -1104 0
v -1344 -1104 0
v -1344 -1088 0
v -1328 -1088 0
v -1312 -1104 0
v -1328 -1104 0
v -1328 -1088 0
v -1312 -1088 0
v -1344 -1120 0
v -1360 -1120 0
v -1360 -1104 0
v -1344 -1104 0
v -1328 -1120 0
v -1344 -1120 0
v -1344 -1104 0
v -1328 -1104 0
v -1312 -1120 0
v -1328 -1120 0
v -1328 -1104 0
v -1312 -1104 0
v -1296 -1120 0
v -1312 -1120 0
v -1312 -1104 0
v -1296 -1104 0
v -1344 -1136 0
v -1360 -1136 0
v -1360 -1120 0
v -1344 -1120 0
v -1328 -1136 0
v -1344 -1136 0
v -1344 -1120 0
v -1328 -1120 0
v -1312 -1136 0
v -1328 -1136 0
v -1328 -1120 0
v -1312 -1120 0
v -1296 -1136 0
v -1312 -1136 0
v -1312 -1120 0
v -1296 -1120 0
v -1344 -1152 0
v -1360 -1152 0
v -1360 -1136 0
v -1344 -1136 0
v -1296 -1152 0
v -1312 -1152 0
v -1312 -1136 0
v -1296 -1136 0

# Texture cooridinates (Count = 40)
vt 0.2809917 0.6463878
vt 0.2975207 0.6463878
vt 0.2975207 0.6768061
vt 0.2809917 0.6768061
vt 0.2809917 0.6140684
vt 0.2975207 0.6140684
vt 0.2975207 0.6444867
vt 0.2809917 0.6444867
vt 0.6322314 0.9372624
vt 0.6487603 0.9372624
vt 0.6487603 0.9676806
vt 0.6322314 0.9676806
vt 0.2458678 0.7110266
vt 0.2623967 0.7110266
vt 0.2623967 0.7414448
vt 0.2458678 0.7414448
vt 0.6146694 0.2908745
vt 0.6311983 0.2908745
vt 0.6311983 0.3212928
vt 0.6146694 0.3212928
vt 0.5971074 0.2908745
vt 0.6136364 0.2908745
vt 0.6136364 0.3212928
vt 0.5971074 0.3212928
vt 0.6146694 0.2585551
vt 0.6311983 0.2585551
vt 0.6311983 0.2889734
vt 0.6146694 0.2889734
vt 0.5971074 0.2585551
vt 0.6136364 0.2585551
vt 0.6136364 0.2889734
vt 0.5971074 0.2889734
vt 0.6146694 0.2262357
vt 0.6311983 0.2262357
vt 0.6311983 0.256654
vt 0.6146694 0.256654
vt 0.5971074 0.2262357
vt 0.6136364 0.2262357
vt 0.6136364 0.256654
vt 0.5971074 0.256654

# Normal
vn 0 0 -1

# Mesh description
g gamemap1_mesh_0004

# Faces
f 1/1/1 2/2/1 3/3/1 4/4/1
f 5/5/1 6/6/1 7/7/1 8/8/1
f 9/1/1 10/2/1 11/3/1 12/4/1
f 13/1/1 14/2/1 15/3/1 16/4/1
f 17/1/1 18/2/1 19/3/1 20/4/1
f 21/5/1 22/6/1 23/7/1 24/8/1
f 25/1/1 26/2/1 27/3/1 28/4/1
f 29/5/1 30/6/1 31/7/1 32/8/1
f 33/1/1 34/2/1 35/3/1 36/4/1
f 37/5/1 38/6/1 39/7/1 40/8/1
f 41/1/1 42/2/1 43/3/1 44/4/1
f 45/5/1 46/6/1 47/7/1 48/8/1
f 49/1/1 50/2/1 51/3/1 52/4/1
f 53/5/1 54/6/1 55/7/1 56/8/1
f 57/1/1 58/2/1 59/3/1 60/4/1
f 61/5/1 62/6/1 63/7/1 64/8/1
f 65/5/1 66/6/1 67/7/1 68/8/1
f 69/1/1 70/2/1 71/3/1 72/4/1
f 73/5/1 74/6/1 75/7/1 76/8/1
f 77/1/1 78/2/1 79/3/1 80/4/1
f 81/5/1 82/6/1 83/7/1 84/8/1
f 85/1/1 86/2/1 87/3/1 88/4/1
f 89/1/1 90/2/1 91/3/1 92/4/1
f 93/5/1 94/6/1 95/7/1 96/8/1
f 97/9/1 98/10/1 99/11/1 100/12/1
f 101/5/1 102/6/1 103/7/1 104/8/1
f 105/5/1 106/6/1 107/7/1 108/8/1
f 109/1/1 110/2/1 111/3/1 112/4/1
f 113/5/1 114/6/1 115/7/1 116/8/1
f 117/13/1 118/14/1 119/15/1 120/16/1
f 121/17/1 122/18/1 123/19/1 124/20/1
f 125/21/1 126/22/1 127/23/1 128/24/1
f 129/17/1 130/18/1 131/19/1 132/20/1
f 133/25/1 134/26/1 135/27/1 136/28/1
f 137/29/1 138/30/1 139/31/1 140/32/1
f 141/21/1 142/22/1 143/23/1 144/24/1
f 145/25/1 146/26/1 147/27/1 148/28/1
f 149/33/1 150/34/1 151/35/1 152/36/1
f 153/37/1 154/38/1 155/39/1 156/40/1
f 157/29/1 158/30/1 159/31/1 160/32/1
f 161/33/1 162/34/1 163/35/1 164/36/1
f 165/37/1 166/38/1 167/39/1 168/40/1

