# Tiled2Unity generated file. Do not modify by hand.
# Wavefront file for 'gamemap1_mesh_0003.obj'

# Vertices (Count = 548)
v -1216 -912 0
v -1232 -912 0
v -1232 -896 0
v -1216 -896 0
v -1200 -912 0
v -1216 -912 0
v -1216 -896 0
v -1200 -896 0
v -1184 -912 0
v -1200 -912 0
v -1200 -896 0
v -1184 -896 0
v -1168 -912 0
v -1184 -912 0
v -1184 -896 0
v -1168 -896 0
v -1152 -912 0
v -1168 -912 0
v -1168 -896 0
v -1152 -896 0
v -1248 -928 0
v -1264 -928 0
v -1264 -912 0
v -1248 -912 0
v -1232 -928 0
v -1248 -928 0
v -1248 -912 0
v -1232 -912 0
v -1216 -928 0
v -1232 -928 0
v -1232 -912 0
v -1216 -912 0
v -1200 -928 0
v -1216 -928 0
v -1216 -912 0
v -1200 -912 0
v -1184 -928 0
v -1200 -928 0
v -1200 -912 0
v -1184 -912 0
v -1168 -928 0
v -1184 -928 0
v -1184 -912 0
v -1168 -912 0
v -1152 -928 0
v -1168 -928 0
v -1168 -912 0
v -1152 -912 0
v -1136 -928 0
v -1152 -928 0
v -1152 -912 0
v -1136 -912 0
v -1248 -944 0
v -1264 -944 0
v -1264 -928 0
v -1248 -928 0
v -1232 -944 0
v -1248 -944 0
v -1248 -928 0
v -1232 -928 0
v -1216 -944 0
v -1232 -944 0
v -1232 -928 0
v -1216 -928 0
v -1200 -944 0
v -1216 -944 0
v -1216 -928 0
v -1200 -928 0
v -1184 -944 0
v -1200 -944 0
v -1200 -928 0
v -1184 -928 0
v -1168 -944 0
v -1184 -944 0
v -1184 -928 0
v -1168 -928 0
v -1152 -944 0
v -1168 -944 0
v -1168 -928 0
v -1152 -928 0
v -1136 -944 0
v -1152 -944 0
v -1152 -928 0
v -1136 -928 0
v -1280 -960 0
v -1296 -960 0
v -1296 -944 0
v -1280 -944 0
v -1264 -960 0
v -1280 -960 0
v -1280 -944 0
v -1264 -944 0
v -1248 -960 0
v -1264 -960 0
v -1264 -944 0
v -1248 -944 0
v -1232 -960 0
v -1248 -960 0
v -1248 -944 0
v -1232 -944 0
v -1216 -960 0
v -1232 -960 0
v -1232 -944 0
v -1216 -944 0
v -1200 -960 0
v -1216 -960 0
v -1216 -944 0
v -1200 -944 0
v -1184 -960 0
v -1200 -960 0
v -1200 -944 0
v -1184 -944 0
v -1168 -960 0
v -1184 -960 0
v -1184 -944 0
v -1168 -944 0
v -1152 -960 0
v -1168 -960 0
v -1168 -944 0
v -1152 -944 0
v -1136 -960 0
v -1152 -960 0
v -1152 -944 0
v -1136 -944 0
v -1120 -960 0
v -1136 -960 0
v -1136 -944 0
v -1120 -944 0
v -1280 -976 0
v -1296 -976 0
v -1296 -960 0
v -1280 -960 0
v -1264 -976 0
v -1280 -976 0
v -1280 -960 0
v -1264 -960 0
v -1248 -976 0
v -1264 -976 0
v -1264 -960 0
v -1248 -960 0
v -1232 -976 0
v -1248 -976 0
v -1248 -960 0
v -1232 -960 0
v -1216 -976 0
v -1232 -976 0
v -1232 -960 0
v -1216 -960 0
v -1200 -976 0
v -1216 -976 0
v -1216 -960 0
v -1200 -960 0
v -1184 -976 0
v -1200 -976 0
v -1200 -960 0
v -1184 -960 0
v -1168 -976 0
v -1184 -976 0
v -1184 -960 0
v -1168 -960 0
v -1152 -976 0
v -1168 -976 0
v -1168 -960 0
v -1152 -960 0
v -1136 -976 0
v -1152 -976 0
v -1152 -960 0
v -1136 -960 0
v -1120 -976 0
v -1136 -976 0
v -1136 -960 0
v -1120 -960 0
v -1280 -992 0
v -1296 -992 0
v -1296 -976 0
v -1280 -976 0
v -1264 -992 0
v -1280 -992 0
v -1280 -976 0
v -1264 -976 0
v -1248 -992 0
v -1264 -992 0
v -1264 -976 0
v -1248 -976 0
v -1232 -992 0
v -1248 -992 0
v -1248 -976 0
v -1232 -976 0
v -1216 -992 0
v -1232 -992 0
v -1232 -976 0
v -1216 -976 0
v -1200 -992 0
v -1216 -992 0
v -1216 -976 0
v -1200 -976 0
v -1184 -992 0
v -1200 -992 0
v -1200 -976 0
v -1184 -976 0
v -1168 -992 0
v -1184 -992 0
v -1184 -976 0
v -1168 -976 0
v -1152 -992 0
v -1168 -992 0
v -1168 -976 0
v -1152 -976 0
v -1136 -992 0
v -1152 -992 0
v -1152 -976 0
v -1136 -976 0
v -1120 -992 0
v -1136 -992 0
v -1136 -976 0
v -1120 -976 0
v -1280 -1008 0
v -1296 -1008 0
v -1296 -992 0
v -1280 -992 0
v -1264 -1008 0
v -1280 -1008 0
v -1280 -992 0
v -1264 -992 0
v -1248 -1008 0
v -1264 -1008 0
v -1264 -992 0
v -1248 -992 0
v -1232 -1008 0
v -1248 -1008 0
v -1248 -992 0
v -1232 -992 0
v -1216 -1008 0
v -1232 -1008 0
v -1232 -992 0
v -1216 -992 0
v -1200 -1008 0
v -1216 -1008 0
v -1216 -992 0
v -1200 -992 0
v -1184 -1008 0
v -1200 -1008 0
v -1200 -992 0
v -1184 -992 0
v -1168 -1008 0
v -1184 -1008 0
v -1184 -992 0
v -1168 -992 0
v -1152 -1008 0
v -1168 -1008 0
v -1168 -992 0
v -1152 -992 0
v -1136 -1008 0
v -1152 -1008 0
v -1152 -992 0
v -1136 -992 0
v -1120 -1008 0
v -1136 -1008 0
v -1136 -992 0
v -1120 -992 0
v -1280 -1024 0
v -1296 -1024 0
v -1296 -1008 0
v -1280 -1008 0
v -1264 -1024 0
v -1280 -1024 0
v -1280 -1008 0
v -1264 -1008 0
v -1248 -1024 0
v -1264 -1024 0
v -1264 -1008 0
v -1248 -1008 0
v -1232 -1024 0
v -1248 -1024 0
v -1248 -1008 0
v -1232 -1008 0
v -1216 -1024 0
v -1232 -1024 0
v -1232 -1008 0
v -1216 -1008 0
v -1200 -1024 0
v -1216 -1024 0
v -1216 -1008 0
v -1200 -1008 0
v -1184 -1024 0
v -1200 -1024 0
v -1200 -1008 0
v -1184 -1008 0
v -1168 -1024 0
v -1184 -1024 0
v -1184 -1008 0
v -1168 -1008 0
v -1152 -1024 0
v -1168 -1024 0
v -1168 -1008 0
v -1152 -1008 0
v -1136 -1024 0
v -1152 -1024 0
v -1152 -1008 0
v -1136 -1008 0
v -1280 -1040 0
v -1296 -1040 0
v -1296 -1024 0
v -1280 -1024 0
v -1264 -1040 0
v -1280 -1040 0
v -1280 -1024 0
v -1264 -1024 0
v -1248 -1040 0
v -1264 -1040 0
v -1264 -1024 0
v -1248 -1024 0
v -1232 -1040 0
v -1248 -1040 0
v -1248 -1024 0
v -1232 -1024 0
v -1216 -1040 0
v -1232 -1040 0
v -1232 -1024 0
v -1216 -1024 0
v -1200 -1040 0
v -1216 -1040 0
v -1216 -1024 0
v -1200 -1024 0
v -1184 -1040 0
v -1200 -1040 0
v -1200 -1024 0
v -1184 -1024 0
v -1168 -1040 0
v -1184 -1040 0
v -1184 -1024 0
v -1168 -1024 0
v -1152 -1040 0
v -1168 -1040 0
v -1168 -1024 0
v -1152 -1024 0
v -1136 -1040 0
v -1152 -1040 0
v -1152 -1024 0
v -1136 -1024 0
v -1280 -1056 0
v -1296 -1056 0
v -1296 -1040 0
v -1280 -1040 0
v -1264 -1056 0
v -1280 -1056 0
v -1280 -1040 0
v -1264 -1040 0
v -1248 -1056 0
v -1264 -1056 0
v -1264 -1040 0
v -1248 -1040 0
v -1232 -1056 0
v -1248 -1056 0
v -1248 -1040 0
v -1232 -1040 0
v -1216 -1056 0
v -1232 -1056 0
v -1232 -1040 0
v -1216 -1040 0
v -1200 -1056 0
v -1216 -1056 0
v -1216 -1040 0
v -1200 -1040 0
v -1184 -1056 0
v -1200 -1056 0
v -1200 -1040 0
v -1184 -1040 0
v -1168 -1056 0
v -1184 -1056 0
v -1184 -1040 0
v -1168 -1040 0
v -1152 -1056 0
v -1168 -1056 0
v -1168 -1040 0
v -1152 -1040 0
v -1136 -1056 0
v -1152 -1056 0
v -1152 -1040 0
v -1136 -1040 0
v -1280 -1072 0
v -1296 -1072 0
v -1296 -1056 0
v -1280 -1056 0
v -1264 -1072 0
v -1280 -1072 0
v -1280 -1056 0
v -1264 -1056 0
v -1248 -1072 0
v -1264 -1072 0
v -1264 -1056 0
v -1248 -1056 0
v -1232 -1072 0
v -1248 -1072 0
v -1248 -1056 0
v -1232 -1056 0
v -1216 -1072 0
v -1232 -1072 0
v -1232 -1056 0
v -1216 -1056 0
v -1200 -1072 0
v -1216 -1072 0
v -1216 -1056 0
v -1200 -1056 0
v -1184 -1072 0
v -1200 -1072 0
v -1200 -1056 0
v -1184 -1056 0
v -1168 -1072 0
v -1184 -1072 0
v -1184 -1056 0
v -1168 -1056 0
v -1152 -1072 0
v -1168 -1072 0
v -1168 -1056 0
v -1152 -1056 0
v -1136 -1072 0
v -1152 -1072 0
v -1152 -1056 0
v -1136 -1056 0
v -1264 -1088 0
v -1280 -1088 0
v -1280 -1072 0
v -1264 -1072 0
v -1248 -1088 0
v -1264 -1088 0
v -1264 -1072 0
v -1248 -1072 0
v -1232 -1088 0
v -1248 -1088 0
v -1248 -1072 0
v -1232 -1072 0
v -1216 -1088 0
v -1232 -1088 0
v -1232 -1072 0
v -1216 -1072 0
v -1200 -1088 0
v -1216 -1088 0
v -1216 -1072 0
v -1200 -1072 0
v -1184 -1088 0
v -1200 -1088 0
v -1200 -1072 0
v -1184 -1072 0
v -1168 -1088 0
v -1184 -1088 0
v -1184 -1072 0
v -1168 -1072 0
v -1152 -1088 0
v -1168 -1088 0
v -1168 -1072 0
v -1152 -1072 0
v -1136 -1088 0
v -1152 -1088 0
v -1152 -1072 0
v -1136 -1072 0
v -1248 -1104 0
v -1264 -1104 0
v -1264 -1088 0
v -1248 -1088 0
v -1232 -1104 0
v -1248 -1104 0
v -1248 -1088 0
v -1232 -1088 0
v -1216 -1104 0
v -1232 -1104 0
v -1232 -1088 0
v -1216 -1088 0
v -1200 -1104 0
v -1216 -1104 0
v -1216 -1088 0
v -1200 -1088 0
v -1184 -1104 0
v -1200 -1104 0
v -1200 -1088 0
v -1184 -1088 0
v -1168 -1104 0
v -1184 -1104 0
v -1184 -1088 0
v -1168 -1088 0
v -1152 -1104 0
v -1168 -1104 0
v -1168 -1088 0
v -1152 -1088 0
v -1136 -1104 0
v -1152 -1104 0
v -1152 -1088 0
v -1136 -1088 0
v -1248 -1120 0
v -1264 -1120 0
v -1264 -1104 0
v -1248 -1104 0
v -1232 -1120 0
v -1248 -1120 0
v -1248 -1104 0
v -1232 -1104 0
v -1216 -1120 0
v -1232 -1120 0
v -1232 -1104 0
v -1216 -1104 0
v -1200 -1120 0
v -1216 -1120 0
v -1216 -1104 0
v -1200 -1104 0
v -1184 -1120 0
v -1200 -1120 0
v -1200 -1104 0
v -1184 -1104 0
v -1168 -1120 0
v -1184 -1120 0
v -1184 -1104 0
v -1168 -1104 0
v -1152 -1120 0
v -1168 -1120 0
v -1168 -1104 0
v -1152 -1104 0
v -1136 -1120 0
v -1152 -1120 0
v -1152 -1104 0
v -1136 -1104 0
v -1184 -1136 0
v -1200 -1136 0
v -1200 -1120 0
v -1184 -1120 0
v -1168 -1136 0
v -1184 -1136 0
v -1184 -1120 0
v -1168 -1120 0
v -1152 -1136 0
v -1168 -1136 0
v -1168 -1120 0
v -1152 -1120 0
v -1136 -1136 0
v -1152 -1136 0
v -1152 -1120 0
v -1136 -1120 0
v -1168 -1152 0
v -1184 -1152 0
v -1184 -1136 0
v -1168 -1136 0
v -1152 -1152 0
v -1168 -1152 0
v -1168 -1136 0
v -1152 -1136 0
v -1136 -1152 0
v -1152 -1152 0
v -1152 -1136 0
v -1136 -1136 0

# Texture cooridinates (Count = 52)
vt 0.1580579 0.6787072
vt 0.1745868 0.6787072
vt 0.1745868 0.7091255
vt 0.1580579 0.7091255
vt 0.1404959 0.6787072
vt 0.1570248 0.6787072
vt 0.1570248 0.7091255
vt 0.1404959 0.7091255
vt 0.1229339 0.6787072
vt 0.1394628 0.6787072
vt 0.1394628 0.7091255
vt 0.1229339 0.7091255
vt 0.08780992 0.6463878
vt 0.1043388 0.6463878
vt 0.1043388 0.6768061
vt 0.08780992 0.6768061
vt 0.1404959 0.6463878
vt 0.1570248 0.6463878
vt 0.1570248 0.6768061
vt 0.1404959 0.6768061
vt 0.1053719 0.6463878
vt 0.1219008 0.6463878
vt 0.1219008 0.6768061
vt 0.1053719 0.6768061
vt 0.1580579 0.6463878
vt 0.1745868 0.6463878
vt 0.1745868 0.6768061
vt 0.1580579 0.6768061
vt 0.1229339 0.6463878
vt 0.1394628 0.6463878
vt 0.1394628 0.6768061
vt 0.1229339 0.6768061
vt 0.1053719 0.6787072
vt 0.1219008 0.6787072
vt 0.1219008 0.7091255
vt 0.1053719 0.7091255
vt 0.1229339 0.6140684
vt 0.1394628 0.6140684
vt 0.1394628 0.6444867
vt 0.1229339 0.6444867
vt 0.1580579 0.6140684
vt 0.1745868 0.6140684
vt 0.1745868 0.6444867
vt 0.1580579 0.6444867
vt 0.08780992 0.6787072
vt 0.1043388 0.6787072
vt 0.1043388 0.7091255
vt 0.08780992 0.7091255
vt 0.1404959 0.6140684
vt 0.1570248 0.6140684
vt 0.1570248 0.6444867
vt 0.1404959 0.6444867

# Normal
vn 0 0 -1

# Mesh description
g gamemap1_mesh_0003

# Faces
f 1/1/1 2/2/1 3/3/1 4/4/1
f 5/5/1 6/6/1 7/7/1 8/8/1
f 9/5/1 10/6/1 11/7/1 12/8/1
f 13/5/1 14/6/1 15/7/1 16/8/1
f 17/9/1 18/10/1 19/11/1 20/12/1
f 21/1/1 22/2/1 23/3/1 24/4/1
f 25/5/1 26/6/1 27/7/1 28/8/1
f 29/13/1 30/14/1 31/15/1 32/16/1
f 33/17/1 34/18/1 35/19/1 36/20/1
f 37/17/1 38/18/1 39/19/1 40/20/1
f 41/17/1 42/18/1 43/19/1 44/20/1
f 45/21/1 46/22/1 47/23/1 48/24/1
f 49/9/1 50/10/1 51/11/1 52/12/1
f 53/25/1 54/26/1 55/27/1 56/28/1
f 57/17/1 58/18/1 59/19/1 60/20/1
f 61/17/1 62/18/1 63/19/1 64/20/1
f 65/17/1 66/18/1 67/19/1 68/20/1
f 69/17/1 70/18/1 71/19/1 72/20/1
f 73/17/1 74/18/1 75/19/1 76/20/1
f 77/17/1 78/18/1 79/19/1 80/20/1
f 81/29/1 82/30/1 83/31/1 84/32/1
f 85/1/1 86/2/1 87/3/1 88/4/1
f 89/5/1 90/6/1 91/7/1 92/8/1
f 93/13/1 94/14/1 95/15/1 96/16/1
f 97/17/1 98/18/1 99/19/1 100/20/1
f 101/17/1 102/18/1 103/19/1 104/20/1
f 105/17/1 106/18/1 107/19/1 108/20/1
f 109/17/1 110/18/1 111/19/1 112/20/1
f 113/17/1 114/18/1 115/19/1 116/20/1
f 117/17/1 118/18/1 119/19/1 120/20/1
f 121/21/1 122/22/1 123/23/1 124/24/1
f 125/9/1 126/10/1 127/11/1 128/12/1
f 129/25/1 130/26/1 131/27/1 132/28/1
f 133/17/1 134/18/1 135/19/1 136/20/1
f 137/17/1 138/18/1 139/19/1 140/20/1
f 141/17/1 142/18/1 143/19/1 144/20/1
f 145/17/1 146/18/1 147/19/1 148/20/1
f 149/17/1 150/18/1 151/19/1 152/20/1
f 153/17/1 154/18/1 155/19/1 156/20/1
f 157/17/1 158/18/1 159/19/1 160/20/1
f 161/17/1 162/18/1 163/19/1 164/20/1
f 165/17/1 166/18/1 167/19/1 168/20/1
f 169/29/1 170/30/1 171/31/1 172/32/1
f 173/25/1 174/26/1 175/27/1 176/28/1
f 177/17/1 178/18/1 179/19/1 180/20/1
f 181/17/1 182/18/1 183/19/1 184/20/1
f 185/17/1 186/18/1 187/19/1 188/20/1
f 189/17/1 190/18/1 191/19/1 192/20/1
f 193/17/1 194/18/1 195/19/1 196/20/1
f 197/17/1 198/18/1 199/19/1 200/20/1
f 201/17/1 202/18/1 203/19/1 204/20/1
f 205/17/1 206/18/1 207/19/1 208/20/1
f 209/17/1 210/18/1 211/19/1 212/20/1
f 213/29/1 214/30/1 215/31/1 216/32/1
f 217/25/1 218/26/1 219/27/1 220/28/1
f 221/17/1 222/18/1 223/19/1 224/20/1
f 225/17/1 226/18/1 227/19/1 228/20/1
f 229/17/1 230/18/1 231/19/1 232/20/1
f 233/17/1 234/18/1 235/19/1 236/20/1
f 237/17/1 238/18/1 239/19/1 240/20/1
f 241/17/1 242/18/1 243/19/1 244/20/1
f 245/17/1 246/18/1 247/19/1 248/20/1
f 249/17/1 250/18/1 251/19/1 252/20/1
f 253/33/1 254/34/1 255/35/1 256/36/1
f 257/37/1 258/38/1 259/39/1 260/40/1
f 261/25/1 262/26/1 263/27/1 264/28/1
f 265/17/1 266/18/1 267/19/1 268/20/1
f 269/17/1 270/18/1 271/19/1 272/20/1
f 273/17/1 274/18/1 275/19/1 276/20/1
f 277/17/1 278/18/1 279/19/1 280/20/1
f 281/17/1 282/18/1 283/19/1 284/20/1
f 285/17/1 286/18/1 287/19/1 288/20/1
f 289/17/1 290/18/1 291/19/1 292/20/1
f 293/17/1 294/18/1 295/19/1 296/20/1
f 297/29/1 298/30/1 299/31/1 300/32/1
f 301/25/1 302/26/1 303/27/1 304/28/1
f 305/17/1 306/18/1 307/19/1 308/20/1
f 309/17/1 310/18/1 311/19/1 312/20/1
f 313/17/1 314/18/1 315/19/1 316/20/1
f 317/17/1 318/18/1 319/19/1 320/20/1
f 321/17/1 322/18/1 323/19/1 324/20/1
f 325/17/1 326/18/1 327/19/1 328/20/1
f 329/17/1 330/18/1 331/19/1 332/20/1
f 333/17/1 334/18/1 335/19/1 336/20/1
f 337/29/1 338/30/1 339/31/1 340/32/1
f 341/25/1 342/26/1 343/27/1 344/28/1
f 345/17/1 346/18/1 347/19/1 348/20/1
f 349/17/1 350/18/1 351/19/1 352/20/1
f 353/17/1 354/18/1 355/19/1 356/20/1
f 357/17/1 358/18/1 359/19/1 360/20/1
f 361/17/1 362/18/1 363/19/1 364/20/1
f 365/17/1 366/18/1 367/19/1 368/20/1
f 369/17/1 370/18/1 371/19/1 372/20/1
f 373/17/1 374/18/1 375/19/1 376/20/1
f 377/29/1 378/30/1 379/31/1 380/32/1
f 381/41/1 382/42/1 383/43/1 384/44/1
f 385/45/1 386/46/1 387/47/1 388/48/1
f 389/17/1 390/18/1 391/19/1 392/20/1
f 393/17/1 394/18/1 395/19/1 396/20/1
f 397/17/1 398/18/1 399/19/1 400/20/1
f 401/17/1 402/18/1 403/19/1 404/20/1
f 405/17/1 406/18/1 407/19/1 408/20/1
f 409/17/1 410/18/1 411/19/1 412/20/1
f 413/17/1 414/18/1 415/19/1 416/20/1
f 417/29/1 418/30/1 419/31/1 420/32/1
f 421/41/1 422/42/1 423/43/1 424/44/1
f 425/45/1 426/46/1 427/47/1 428/48/1
f 429/17/1 430/18/1 431/19/1 432/20/1
f 433/17/1 434/18/1 435/19/1 436/20/1
f 437/17/1 438/18/1 439/19/1 440/20/1
f 441/17/1 442/18/1 443/19/1 444/20/1
f 445/17/1 446/18/1 447/19/1 448/20/1
f 449/17/1 450/18/1 451/19/1 452/20/1
f 453/29/1 454/30/1 455/31/1 456/32/1
f 457/25/1 458/26/1 459/27/1 460/28/1
f 461/17/1 462/18/1 463/19/1 464/20/1
f 465/17/1 466/18/1 467/19/1 468/20/1
f 469/17/1 470/18/1 471/19/1 472/20/1
f 473/17/1 474/18/1 475/19/1 476/20/1
f 477/17/1 478/18/1 479/19/1 480/20/1
f 481/17/1 482/18/1 483/19/1 484/20/1
f 485/29/1 486/30/1 487/31/1 488/32/1
f 489/41/1 490/42/1 491/43/1 492/44/1
f 493/49/1 494/50/1 495/51/1 496/52/1
f 497/49/1 498/50/1 499/51/1 500/52/1
f 501/49/1 502/50/1 503/51/1 504/52/1
f 505/45/1 506/46/1 507/47/1 508/48/1
f 509/17/1 510/18/1 511/19/1 512/20/1
f 513/17/1 514/18/1 515/19/1 516/20/1
f 517/29/1 518/30/1 519/31/1 520/32/1
f 521/41/1 522/42/1 523/43/1 524/44/1
f 525/45/1 526/46/1 527/47/1 528/48/1
f 529/17/1 530/18/1 531/19/1 532/20/1
f 533/29/1 534/30/1 535/31/1 536/32/1
f 537/41/1 538/42/1 539/43/1 540/44/1
f 541/49/1 542/50/1 543/51/1 544/52/1
f 545/37/1 546/38/1 547/39/1 548/40/1

