# Tiled2Unity generated file. Do not modify by hand.
# Wavefront file for 'outside_mesh_0004.obj'

# Vertices (Count = 160)
v -128 -1008 0
v -144 -1008 0
v -144 -992 0
v -128 -992 0
v -112 -1008 0
v -128 -1008 0
v -128 -992 0
v -112 -992 0
v -144 -1024 0
v -160 -1024 0
v -160 -1008 0
v -144 -1008 0
v -128 -1024 0
v -144 -1024 0
v -144 -1008 0
v -128 -1008 0
v -112 -1024 0
v -128 -1024 0
v -128 -1008 0
v -112 -1008 0
v -96 -1024 0
v -112 -1024 0
v -112 -1008 0
v -96 -1008 0
v -160 -1040 0
v -176 -1040 0
v -176 -1024 0
v -160 -1024 0
v -144 -1040 0
v -160 -1040 0
v -160 -1024 0
v -144 -1024 0
v -128 -1040 0
v -144 -1040 0
v -144 -1024 0
v -128 -1024 0
v -112 -1040 0
v -128 -1040 0
v -128 -1024 0
v -112 -1024 0
v -96 -1040 0
v -112 -1040 0
v -112 -1024 0
v -96 -1024 0
v -80 -1040 0
v -96 -1040 0
v -96 -1024 0
v -80 -1024 0
v -160 -1056 0
v -176 -1056 0
v -176 -1040 0
v -160 -1040 0
v -144 -1056 0
v -160 -1056 0
v -160 -1040 0
v -144 -1040 0
v -128 -1056 0
v -144 -1056 0
v -144 -1040 0
v -128 -1040 0
v -112 -1056 0
v -128 -1056 0
v -128 -1040 0
v -112 -1040 0
v -96 -1056 0
v -112 -1056 0
v -112 -1040 0
v -96 -1040 0
v -80 -1056 0
v -96 -1056 0
v -96 -1040 0
v -80 -1040 0
v -160 -1072 0
v -176 -1072 0
v -176 -1056 0
v -160 -1056 0
v -144 -1072 0
v -160 -1072 0
v -160 -1056 0
v -144 -1056 0
v -128 -1072 0
v -144 -1072 0
v -144 -1056 0
v -128 -1056 0
v -112 -1072 0
v -128 -1072 0
v -128 -1056 0
v -112 -1056 0
v -96 -1072 0
v -112 -1072 0
v -112 -1056 0
v -96 -1056 0
v -80 -1072 0
v -96 -1072 0
v -96 -1056 0
v -80 -1056 0
v -160 -1088 0
v -176 -1088 0
v -176 -1072 0
v -160 -1072 0
v -144 -1088 0
v -160 -1088 0
v -160 -1072 0
v -144 -1072 0
v -128 -1088 0
v -144 -1088 0
v -144 -1072 0
v -128 -1072 0
v -112 -1088 0
v -128 -1088 0
v -128 -1072 0
v -112 -1072 0
v -96 -1088 0
v -112 -1088 0
v -112 -1072 0
v -96 -1072 0
v -80 -1088 0
v -96 -1088 0
v -96 -1072 0
v -80 -1072 0
v -160 -1104 0
v -176 -1104 0
v -176 -1088 0
v -160 -1088 0
v -144 -1104 0
v -160 -1104 0
v -160 -1088 0
v -144 -1088 0
v -128 -1104 0
v -144 -1104 0
v -144 -1088 0
v -128 -1088 0
v -112 -1104 0
v -128 -1104 0
v -128 -1088 0
v -112 -1088 0
v -96 -1104 0
v -112 -1104 0
v -112 -1088 0
v -96 -1088 0
v -80 -1104 0
v -96 -1104 0
v -96 -1088 0
v -80 -1088 0
v -160 -1120 0
v -176 -1120 0
v -176 -1104 0
v -160 -1104 0
v -144 -1120 0
v -160 -1120 0
v -160 -1104 0
v -144 -1104 0
v -96 -1120 0
v -112 -1120 0
v -112 -1104 0
v -96 -1104 0
v -80 -1120 0
v -96 -1120 0
v -96 -1104 0
v -80 -1104 0

# Texture cooridinates (Count = 32)
vt 0.2458678 0.2908745
vt 0.2623967 0.2908745
vt 0.2623967 0.3212928
vt 0.2458678 0.3212928
vt 0.2283058 0.2908745
vt 0.2448347 0.2908745
vt 0.2448347 0.3212928
vt 0.2283058 0.3212928
vt 0.3161157 0.2585551
vt 0.3326446 0.2585551
vt 0.3326446 0.2889734
vt 0.3161157 0.2889734
vt 0.3336777 0.2585551
vt 0.3502066 0.2585551
vt 0.3502066 0.2889734
vt 0.3336777 0.2889734
vt 0.3161157 0.2262357
vt 0.3326446 0.2262357
vt 0.3326446 0.256654
vt 0.3161157 0.256654
vt 0.2985537 0.2585551
vt 0.3150826 0.2585551
vt 0.3150826 0.2889734
vt 0.2985537 0.2889734
vt 0.3336777 0.2262357
vt 0.3502066 0.2262357
vt 0.3502066 0.256654
vt 0.3336777 0.256654
vt 0.2985537 0.2262357
vt 0.3150826 0.2262357
vt 0.3150826 0.256654
vt 0.2985537 0.256654

# Normal
vn 0 0 -1

# Mesh description
g outside_mesh_0004

# Faces
f 1/1/1 2/2/1 3/3/1 4/4/1
f 5/5/1 6/6/1 7/7/1 8/8/1
f 9/1/1 10/2/1 11/3/1 12/4/1
f 13/9/1 14/10/1 15/11/1 16/12/1
f 17/9/1 18/10/1 19/11/1 20/12/1
f 21/5/1 22/6/1 23/7/1 24/8/1
f 25/1/1 26/2/1 27/3/1 28/4/1
f 29/9/1 30/10/1 31/11/1 32/12/1
f 33/9/1 34/10/1 35/11/1 36/12/1
f 37/9/1 38/10/1 39/11/1 40/12/1
f 41/9/1 42/10/1 43/11/1 44/12/1
f 45/5/1 46/6/1 47/7/1 48/8/1
f 49/13/1 50/14/1 51/15/1 52/16/1
f 53/17/1 54/18/1 55/19/1 56/20/1
f 57/17/1 58/18/1 59/19/1 60/20/1
f 61/17/1 62/18/1 63/19/1 64/20/1
f 65/17/1 66/18/1 67/19/1 68/20/1
f 69/21/1 70/22/1 71/23/1 72/24/1
f 73/13/1 74/14/1 75/15/1 76/16/1
f 77/17/1 78/18/1 79/19/1 80/20/1
f 81/17/1 82/18/1 83/19/1 84/20/1
f 85/17/1 86/18/1 87/19/1 88/20/1
f 89/17/1 90/18/1 91/19/1 92/20/1
f 93/21/1 94/22/1 95/23/1 96/24/1
f 97/13/1 98/14/1 99/15/1 100/16/1
f 101/17/1 102/18/1 103/19/1 104/20/1
f 105/17/1 106/18/1 107/19/1 108/20/1
f 109/17/1 110/18/1 111/19/1 112/20/1
f 113/17/1 114/18/1 115/19/1 116/20/1
f 117/21/1 118/22/1 119/23/1 120/24/1
f 121/13/1 122/14/1 123/15/1 124/16/1
f 125/17/1 126/18/1 127/19/1 128/20/1
f 129/17/1 130/18/1 131/19/1 132/20/1
f 133/17/1 134/18/1 135/19/1 136/20/1
f 137/17/1 138/18/1 139/19/1 140/20/1
f 141/21/1 142/22/1 143/23/1 144/24/1
f 145/25/1 146/26/1 147/27/1 148/28/1
f 149/17/1 150/18/1 151/19/1 152/20/1
f 153/17/1 154/18/1 155/19/1 156/20/1
f 157/29/1 158/30/1 159/31/1 160/32/1

